<svg xmlns="http://www.w3.org/2000/svg" fill="none" viewBox="0 0 104 104">
<g clip-path="url(#a)">
<path fill="#6C63FF" d="M0 0h104v104H0z"/>
<path fill="#fff" d="M15.118 18.52H60.87v14.018h-2.236l-2.494-9.03c-.172-.688-.3727-1.1753-.602-1.462-.172-.344-.5447-.5447-1.118-.602-.5733-.1147-1.548-.172-2.924-.172h-9.718v48.762c0 2.0067.086 3.182.258 3.526.172.344.7167.5733 1.634.688l4.73.516V77H27.674v-2.236l4.73-.516c.9173-.1147 1.462-.344 1.634-.688.172-.344.258-1.5193.258-3.526V21.272h-9.804c-1.3187 0-2.2933.0573-2.924.172-.5733.0573-.9747.258-1.204.602-.172.2867-.344.774-.516 1.462l-2.494 9.03h-2.236V18.52Z"/>
<path fill="#fff" d="M43.128 36.842V34.52h24.424c6.9947 0 12.3553 2.2647 16.082 6.794 3.7267 4.5293 5.59 10.922 5.59 19.178v6.45c0 8.3133-1.8633 14.7347-5.59 19.264C79.9073 90.7353 74.5467 93 67.552 93H43.128v-2.236l4.73-.516c.9173-.1147 1.462-.344 1.634-.688.172-.344.258-1.5193.258-3.526V41.486c0-2.0067-.086-3.182-.258-3.526-.172-.344-.7167-.5733-1.634-.688l-4.73-.43Zm24.252.43H57.232v52.976H67.38c3.096 0 5.6473-.5733 7.654-1.72 2.0067-1.1467 3.4973-3.096 4.472-5.848 1.032-2.8093 1.548-6.622 1.548-11.438v-15.05c0-4.7587-.516-8.514-1.548-11.266-.9747-2.752-2.4653-4.7013-4.472-5.848-2.0067-1.204-4.558-1.806-7.654-1.806Z"/></g>
<defs><clipPath id="a"><path fill="#fff" d="M0 0h104v104H0z"/></clipPath></defs></svg>