<svg xmlns="http://www.w3.org/2000/svg" fill="none" viewBox="0 0 221 174">
<path fill="#6C63FF" fill-opacity=".1" d="M111.934 168.852c41.488-.874 74.983-8.081 74.814-16.096-.17-8.015-33.94-13.804-75.429-12.929-41.4879.875-74.9833 8.081-74.8137 16.096.1696 8.016 33.94 13.804 75.4287 12.929Z"/><path fill="#fff" fill-opacity=".1" d="M111.934 168.852c41.488-.874 74.983-8.081 74.814-16.096-.17-8.015-33.94-13.804-75.429-12.929-41.4879.875-74.9833 8.081-74.8137 16.096.1696 8.016 33.94 13.804 75.4287 12.929Z" opacity=".7"/><path fill="#6C63FF" fill-opacity=".1" d="M194.922 105.925s23.689-22.3125 10.673-51.9406c-3.615-8.2326-9.463-15.288-16.735-20.5929C172.561 21.5204 131.353-1.967 69.3486 7.1039a46.2808 46.2808 0 0 0-18.6728 6.9993C41.5755 20.063 31.929 31.0091 36.0311 49.7751c1.45 6.6248 1.1232 13.5426-1.2763 19.8948-2.3689 6.2961-6.8565 14.0139-15.2088 22.3433 0 0-17.7972 17.1608-.4825 32.0128a31.6023 31.6023 0 0 0 12.7864 6.566c21.5981 5.512 108.8941 23.817 163.0721-24.667Z"/><path fill="#fff" fill-opacity=".1" d="M194.922 105.925s23.689-22.3125 10.673-51.9406c-3.615-8.2326-9.463-15.288-16.735-20.5929C172.561 21.5204 131.353-1.967 69.3486 7.1039a46.2808 46.2808 0 0 0-18.6728 6.9993C41.5755 20.063 31.929 31.0091 36.0311 49.7751c1.45 6.6248 1.1232 13.5426-1.2763 19.8948-2.3689 6.2961-6.8565 14.0139-15.2088 22.3433 0 0-17.7972 17.1608-.4825 32.0128a31.6023 31.6023 0 0 0 12.7864 6.566c21.5981 5.512 108.8941 23.817 163.0721-24.667Z" opacity=".7"/><path fill="#F1F1F1" d="M71.495 158.279s.9547 1.067.942 1.462a25.9149 25.9149 0 0 1-4.0256.589c-1.8022.074-4.5233-.601-5.0007-.82-.4773-.22-.3395-.823-.3395-.823s1.478-.668 2.5527-.663c1.0747.005 4.0638.206 5.8711.255ZM73.328 159.66s-.3293-.963-.9725-1.412c0 0 2.2157-.374 3.2189.36 1.0032.733-1.3555.97-2.2464 1.052ZM85.8389 155.779s.8653-1.019.8168-1.421a28.155 28.155 0 0 0-4.1174-.714c-1.8278-.135-4.5132.443-4.9752.647-.462.204-.2553.808-.2553.808s1.5521.713 2.6293.744c1.0772.031 4.0792-.084 5.9018-.064ZM87.5567 154.467s-.2553.948-.8526 1.371c0 0 2.2693.448 3.2164-.255.947-.703-1.4525-1.004-2.3638-1.116ZM43.9722 157.632v-1.274c.3552.049.6946.178.993.377.656.476-.1226.746-.993.897ZM54.4278 155.601s.7812-1.093.6995-1.483c-1.3765-.23-2.768-.36-4.1634-.387-1.8303 0-4.4621.807-4.9037 1.047-.4416.239-.2017.825-.2017.825s1.6057.587 2.6803.53c1.0747-.056 4.0715-.405 5.889-.532ZM56.0386 154.154s-.1659.963-.7403 1.434c0 0 2.2974.255 3.1883-.509.8909-.765-1.5341-.885-2.448-.925ZM101.042 159.102s1.021.994 1.049 1.388c-1.299.399-2.6265.696-3.9716.89-1.7869.206-4.5591-.255-5.0492-.449-.4901-.193-.4007-.795-.4007-.795s1.4244-.764 2.4888-.851c1.0645-.086 4.0766-.089 5.8837-.183ZM102.972 160.345s-.401-.937-1.075-1.335c0 0 2.18-.54 3.237.117 1.057.658-1.279 1.071-2.162 1.218ZM114.464 156.35s.927-.976.901-1.371c-1.33-.421-2.69-.743-4.069-.963-1.815-.255-4.531.178-5.003.352-.472.173-.314.79-.314.79s1.506.805 2.581.899c1.075.094 4.087.166 5.904.293ZM116.264 155.142s-.301.933-.934 1.318c0 0 2.241.581 3.226-.056.985-.637-1.388-1.096-2.292-1.262ZM129.908 158.279s.952 1.067.942 1.462c-1.325.302-2.672.499-4.028.589-1.802.074-4.526-.601-5.003-.82-.478-.22-.337-.823-.337-.823s1.475-.668 2.552-.663c1.078.005 4.064.206 5.874.255ZM131.738 159.66s-.329-.963-.972-1.412c0 0 2.215-.374 3.221.36 1.006.733-1.358.97-2.249 1.052ZM143.46 157.466s.781-1.096.702-1.485c-1.377-.231-2.77-.36-4.166-.388-1.83.016-4.46.808-4.904 1.047-.444.24-.199.826-.199.826s1.603.586 2.678.53c1.075-.056 4.059-.395 5.889-.53ZM145.061 156.029s-.169.963-.741 1.435c0 0 2.298.254 3.186-.51.888-.764-1.534-.887-2.445-.925ZM158.684 159.216s.955 1.066.942 1.463c-1.325.3-2.672.497-4.028.589-1.802.074-4.526-.602-5-.823-.475-.222-.34-.823-.34-.823s1.478-.668 2.553-.663c1.074.005 4.064.214 5.873.257ZM160.517 160.597s-.329-.965-.975-1.411c0 0 2.216-.375 3.221.359 1.006.734-1.358.979-2.246 1.052ZM171.616 156.74v1.72c-1.817.148-4.316.435-5.279.481-1.077.056-2.68-.527-2.68-.527s-.255-.586.202-.826c.457-.239 3.063-1.034 4.903-1.047.955.008 1.908.074 2.854.199Z"/><path fill="#6C63FF" d="M160.976 154.352a8.8156 8.8156 0 0 0-.51-3.149c-.179-.509-6.165 1.753-6.749 1.944-1.976.653-3.434 1.797-5.136 3.015-.807.578-1.626 1.164-2.553 1.495-.927.331-2.042.4-3.012.737-.97.336-1.938 1.077-2.042 2.107 2.062.657 4.288 1.157 6.381.588 2.022-.548 3.646-2.015 5.499-2.988a15.1718 15.1718 0 0 1 4.084-1.392c0 .4.02.803.033 1.203 1.052-.001 2.099-.151 3.109-.446a.931.931 0 0 0 .368-.173.8923.8923 0 0 0 .214-.372c.295-.822.403-1.7.314-2.569ZM116.146 152.584c-.896 0-1.838-.036-2.637.375-.975.509-1.531 1.528-2.019 2.514a30.1692 30.1692 0 0 0 17.746-2.066c.049.563-.025 1.13-.217 1.661 1.467.151 2.943.199 4.417.143.156.007.313-.023.456-.087a.981.981 0 0 0 .378-.461 8.552 8.552 0 0 0 .804-2.466c.073-.297.056-.608-.048-.895-.202-.336-.53-.579-.911-.675-2.571-.909-5.346.204-7.85.808a41.588 41.588 0 0 1-10.119 1.149Z"/><path fill="#F7A48B" d="M105.494 93.3534a177.2455 177.2455 0 0 0-7.6019-.0509 1.1886 1.1886 0 0 0-.8475.2369c-.2552.2676-.2144.7007-.1097 1.06.485 1.6689 2.4556 4.2577 4.4541 3.6564 2.063-.6166 3.689-2.8818 4.105-4.9024Z"/><path fill="#252525" d="m92.2639 90.3698 10.7701 8.2835c.115.0892.21.2026.277.3322a.9985.9985 0 0 1 .11.4179c.006.1457-.02.2909-.076.4255a1.0066 1.0066 0 0 1-.25.3531.9985.9985 0 0 1-.652.261 1.002 1.002 0 0 1-.663-.23l-10.4963-8.7094.9802-1.1338Z"/><path fill="#F9B499" d="M106.518 89.9824c-.929.3185-2.211.6829-3.03 1.2256-.82.5427-1.555-.6268-2.392-.8765-.896-.2548-1.6873-.0739-2.6063.0586-1.1564.1682-2.0217.7644-2.9586 1.4702a8.7032 8.7032 0 0 1-3.1653 1.488c-.6049 1.9747 4.2196.5224 4.8322.4103.651-.1198 1.1258-.1478 1.7384.1401 1.4426.6803 2.0776.8128 3.7316.6599 1.039.6803 2.354 1.2129 3.441.0816.621-.6447 1.787-1.274 2.311-1.9416.301-.395.331-.1274.028-.8663-.378-.9275-1.095-1.3224-1.93-1.8499Z"/><path fill="#F9B499" d="M96.7715 93.5776c-.6458.5096-1.5571.8434-2.374 1.2027a.5992.5992 0 0 0-.3628.5925.5982.5982 0 0 0 .442.5362c1.4244.3746 4.6509-1.0446 4.3395-2.5607-.5054-.2395-1.6158-.1121-2.0447.2293Z"/><path fill="#F9B499" d="M95.6254 95.5498c-.3216.4638-.4161 1.4524 0 1.883 1.3274 1.3708 3.635-.8383 4.3806-1.832 1.493-1.9925-.8579-1.5288-2.0066-.9988-.679.2981-1.4627.6166-2.374.9478Z"/><path fill="#F9B499" d="M96.8562 97.2569c-.0919 3.1821 5.0188.2141 4.5948-1.8396-.347-1.6511-1.8303.1044-2.3459.4968-.5156.3924-1.9834.6804-2.2489 1.3428Z"/><path fill="#F9B499" d="M98.8188 98.0749c.7837 2.2321 3.9592-.3185 3.6042-2.0384-.148-.7135-.559-.9937-1.212-.451-.345.2879-.49.795-.789 1.1262-.406.4637-1.5878.7568-1.6032 1.3632Z"/><path fill="#6C63FF" d="M91.8092 91.8501S76.1026 90.413 70.9487 77.8107l1.7869-2.8946s12.1635.7441 19.893 15.6728l-.8194 1.2612Z"/><path fill="#E5E5E5" d="M72.4956 78.1597s9.4449 3.1799 17.2382 12.1615c.0025 0-12.5106-2.4613-17.2382-12.1615Z"/><g fill="#fff" opacity=".3"><path d="M77.8997 77.1176c-.5335-.2548-1.09-.4867-1.6822-.7033l-1.136 1.8524a72.8359 72.8359 0 0 1 1.7869.6803l1.0313-1.8294ZM78.4152 77.3749l-1.0568 1.7836a35.7027 35.7027 0 0 1 4.1455 2.0129l.5489-1.2485a17.6808 17.6808 0 0 0-3.6376-2.548ZM82.5557 81.811c.575.3671 1.1289.7661 1.6592 1.195l.4135-.5096c-.5462-.6013-1.0695-1.1466-1.5852-1.6536l-.4875.9682Z"/></g><path fill="#fff" d="M111.595 93.4146c-.86.451-1.866.665-2.724 1.1135a25.0969 25.0969 0 0 0-2.984-5.0119l2.142-1.2562c1.108 1.7148 2.461 3.4398 3.566 5.1546Z"/><path fill="#6C63FF" d="M139.476 105.421a34.9403 34.9403 0 0 1-22.987 3.075c.868-7.068-.067-14.2176-.996-21.2781-.873-6.6027-1.744-13.2037-2.614-19.8031-.36-2.7238-1.506-5.6871-1.715-8.4262-.209-2.7391.855-5.9266 3.448-6.8464 2.298-.8154 4.817.4637 6.719 1.9976 6.471 5.2183 9.7 13.3948 12.123 21.3395 2.951 9.662 4.658 19.9304 6.022 29.9417Z"/><path fill="#000" d="M139.476 105.421a34.9403 34.9403 0 0 1-22.987 3.075c.868-7.068-.067-14.2176-.996-21.2781-.873-6.6027-1.744-13.2037-2.614-19.8031-.36-2.7238-1.506-5.6871-1.715-8.4262-.209-2.7391.855-5.9266 3.448-6.8464 2.298-.8154 4.817.4637 6.719 1.9976 6.471 5.2183 9.7 13.3948 12.123 21.3395 2.951 9.662 4.658 19.9304 6.022 29.9417Z" opacity=".2"/><path fill="#252525" d="M135.922 94.3319a150.4775 150.4775 0 0 0-3.387 25.9891c-.118 2.747-.159 5.504-.488 8.233-.434 3.6-1.36 7.134-2.284 10.628-1.022 3.907-2.051 7.814-3.089 11.72 2.062.574 4.162 1 6.285 1.274 1.556.211 3.131.239 4.694.085 4.322-.51 8.199-3.124 12.533-3.504-.023-7.091-.045-14.187-.433-21.268-.281-4.986-.737-9.958-1.369-14.919-.485-3.788-1.082-7.577-2.121-11.254-.452-1.5951-1.006-3.2029-2.042-4.5074-1.8-2.2932-5.496-3.3124-8.299-2.4767Z"/><path fill="#000" d="M135.922 94.3319a150.4775 150.4775 0 0 0-3.387 25.9891c-.118 2.747-.159 5.504-.488 8.233-.434 3.6-1.36 7.134-2.284 10.628-1.022 3.907-2.051 7.814-3.089 11.72 2.062.574 4.162 1 6.285 1.274 1.556.211 3.131.239 4.694.085 4.322-.51 8.199-3.124 12.533-3.504-.023-7.091-.045-14.187-.433-21.268-.281-4.986-.737-9.958-1.369-14.919-.485-3.788-1.082-7.577-2.121-11.254-.452-1.5951-1.006-3.2029-2.042-4.5074-1.8-2.2932-5.496-3.3124-8.299-2.4767Z" opacity=".2"/><path fill="#000" d="M148.841 116.403c-.141-1.28-.293-2.554-.457-3.822-.485-3.789-1.082-7.578-2.121-11.255-.452-1.595-1.006-3.2027-2.042-4.5073-1.807-2.2932-5.504-3.3124-8.307-2.4767a151.0015 151.0015 0 0 0-2.192 12.424c4.242 4.309 9.468 7.435 15.119 9.637Z" opacity=".2"/><path fill="#252525" d="m165.385 149.86-4.97 2.207c-.924.41-1.848.82-2.808 1.146a16.6738 16.6738 0 0 1-7.219.803c-.865-2.803-1.731-5.606-2.599-8.408-.62-2.006-1.24-4.013-1.661-6.067-.537-2.599-.751-5.254-.965-7.899l-1.693-20.967c5.361-5.152 11.257-9.053 18.239-11.6115.659-.2548 1.366-.4714 2.042-.3185a42.3774 42.3774 0 0 1 .13 18.819c-.454 2.039-1.054 4.057-1.322 6.131-.436 3.379.018 6.801.475 10.174.692 5.17 1.654 10.821 2.351 15.991Z"/><path fill="#000" d="M163.641 118.568a42.3815 42.3815 0 0 0 .123-19.823c-.684-.1528-1.391.0765-2.042.3185-6.982 2.5485-12.884 6.4595-18.239 11.6115l.51 6.306c6.438 1.006 13.075 1.738 19.648 1.587Z" opacity=".2"/><path fill="#252525" d="M123.72 79.3318c.651 5.1419-.184 10.9997-3.158 12.4852-2.973 1.4855-6.435 2.0384-9.728 2.4817-1.302-2.0893-2.644-3.9825-3.949-6.0718 3.487-3.0321 8.705-5.6821 9.524-10.2251.585-3.268.452-6.6237-.39-9.8353 3.604 5.5266 4.643 5.31 7.701 11.1653Z"/><path fill="#000" d="M123.72 79.3318c.651 5.1419-.184 10.9997-3.158 12.4852-2.973 1.4855-6.435 2.0384-9.728 2.4817-1.302-2.0893-2.644-3.9825-3.949-6.0718 3.487-3.0321 8.705-5.6821 9.524-10.2251.585-3.268.452-6.6237-.39-9.8353 3.604 5.5266 4.643 5.31 7.701 11.1653Z" opacity=".2"/><path fill="#252525" d="M135.07 89.8703c-1.787 1.725-4.302 2.5862-6.788 2.5276-2.078-5.6769-5.657-10.6557-8.891-15.7669-3.234-5.1113-6.211-10.6099-6.849-16.6206-.161-1.5288-1.348-2.8844-1.47-4.4182-.123-1.5339.403-3.2182 1.692-4.0768 1.289-.8587 3.14-.6447 4.503.1605s2.362 2.0893 3.28 3.3786c7.296 10.243 11.11 22.7281 14.523 34.8158Z"/><path fill="#fff" d="M119.557 70.6993c-.281-5.2387-.625-10.7016-3.26-15.2422-.577-.9937-1.32-1.9772-2.394-2.3849-4.71-1.7836-1.884 6.2961-1.2 8.0313a24.1298 24.1298 0 0 0 6.854 9.5958Z"/><path fill="#6C63FF" d="M110.385 52.6288a15.4966 15.4966 0 0 0-.424 7.5293c1.364 7.0274 3.651 14.5236 4.565 21.6223 2.106-9.8811.576-21.1229-4.039-30.1122-.005.3226-.039.644-.102.9606Z"/><path fill="#000" d="M110.385 52.6288a15.4966 15.4966 0 0 0-.424 7.5293c1.364 7.0274 3.651 14.5236 4.565 21.6223 2.106-9.8811.576-21.1229-4.039-30.1122-.005.3226-.039.644-.102.9606Z" opacity=".4"/><path fill="#6C63FF" d="M113.438 36.2757s-4.385 4.0463-6.859 3.7991c-2.473-.2471-1.371-5.2743-1.371-5.2743s5.527-.4867 8.23 1.4752Z"/><path fill="#000" d="M113.438 36.2757s-4.385 4.0463-6.859 3.7991c-2.473-.2471-1.371-5.2743-1.371-5.2743s5.527-.4867 8.23 1.4752Z" opacity=".2"/><path fill="#F9B499" d="M105.591 56.7754c4.793-2.7623 5.709-10.137 2.045-16.4717-3.664-6.3348-10.5205-9.2307-15.3138-6.4684-4.7934 2.7624-5.7088 10.1371-2.0447 16.4718 3.664 6.3347 10.5205 9.2307 15.3135 6.4683Z"/><path fill="#252525" d="m96.0058 58.5224-.1225-.7644a2.338 2.338 0 0 0 .7249.6446l.0358-.6625a1.0222 1.0222 0 0 0 .9496.2854 3.0169 3.0169 0 0 0 .9521-.4051 2.0408 2.0408 0 0 0 .6458-.5096.6797.6797 0 0 0 .0613-.7644l.8092.7491-.4595-1.3504.5665.5885c.184.2158.412.3895.669.5096a.6705.6705 0 0 0 .766-.1732c.255-.3593-.064-.8383-.393-1.1288a6.8691 6.8691 0 0 0-2.7735-1.4526 6.8749 6.8749 0 0 0-3.1311-.0711c-.3753.079-1.3759.2854-1.5597.6701-.1251.2548.1966 1.0014.3038 1.274.2059.5058.478.9822.8092 1.4167.1838.2242 1.1206.9097 1.1461 1.1441ZM92.2866 41.1704c.4595 1.0778 1.1411 2.148 2.2106 2.6296.6944.3108 1.478.3414 2.2387.3414.9139 0 1.8269-.0331 2.739-.0994 1.2761 1.3861 2.3711 2.8461 3.0811 4.5864.694-.4128 1.488-.9504 2.185-1.3632-.72-1.5619-1.325-3.2334-2.042-4.7927 1.988 1.46 4.85 1.7988 7.17.9657-1.516-3.1494-3.423-6.0796-5.906-8.5307l-11.6764 6.2629Z"/><path fill="#F7B595" d="M103.564 43.7185a12.6387 12.6387 0 0 1-1.557-2.7824c-.217-.5326.148-1.246.391-1.7683.114-.266.286-.5031.504-.694.217-.1909.475-.3308.754-.4093.267-.0294.536.0415.753.1987.988.9835 1.256 2.4614 1.404 3.8475a5.831 5.831 0 0 1 0 1.6893 2.182 2.182 0 0 1-.842 1.4218 7.3736 7.3736 0 0 1-1.407-1.5033Z"/><path fill="#6C63FF" d="M106.571 35.7484s4.656-.209 6.867.5274c0 0-1.595-3.0576-8.845-2.9429-7.2496.1146 1.978 2.4155 1.978 2.4155Z"/><path fill="#6C63FF" d="M106.571 35.7483c-7.936 1.0014-15.4434 6.8414-17.7408 14.4905-.7377-.2548-1.3172-.9632-1.9196-1.4651-1.8124-1.5059-4.3753-2.6601-4.6101-5.0018-.3778-3.7684.5692-7.5293 1.5061-11.1984 2.2974-2.0155 4.776-4.4437 7.7805-5.0323 3.5431-.6905 7.1066.8154 10.3999 2.2932 1.253.5631 2.243 1.6689 3.025 2.7671.14.2013 1.689 3.129 1.559 3.1468Z"/><path fill="#fff" d="M106.571 35.7483c-7.936 1.0014-15.4434 6.8414-17.7408 14.4905-.7377-.2548-1.3172-.9632-1.9196-1.4651-1.8124-1.5059-4.3753-2.6601-4.6101-5.0018-.3778-3.7684.5692-7.5293 1.5061-11.1984 2.2974-2.0155 4.776-4.4437 7.7805-5.0323 3.5431-.6905 7.1066.8154 10.3999 2.2932 1.253.5631 2.243 1.6689 3.025 2.7671.14.2013 1.689 3.129 1.559 3.1468Z" opacity=".3"/><path fill="#6C63FF" d="M101.987 29.837c-3.2932-1.4804-6.8568-2.9863-10.3999-2.2932-1.5647.3057-2.984 1.1134-4.3114 2.0995a22.273 22.273 0 0 0-1.9707 3.2258c-1.261 2.5735-1.9043 5.5368-1.2993 8.3396.6867 3.1722 2.836 5.7533 5.136 8.1077 1.7077-4.7164 5.3989-8.6632 9.8865-11.0965a78.7092 78.7092 0 0 0-3.8495-9.4276 477.8919 477.8919 0 0 1 6.6723 2.5913c1.116.4459 2.237.9045 3.304 1.4549-.069-.1223-.118-.2064-.138-.2344-.786-1.0982-1.777-2.204-3.03-2.7671Z"/><path fill="#6C63FF" d="M95.1787 28.7924a78.714 78.714 0 0 1 3.8494 9.4275 21.5279 21.5279 0 0 1 7.5429-2.4664c.11-.0153-1.021-2.1735-1.422-2.9098-1.067-.5504-2.187-1.0192-3.303-1.4549a425.4149 425.4149 0 0 0-6.6673-2.5964Z"/><path fill="#000" d="M94.1424 41.8534c-1.1461-2.4359-3.1117-4.3851-5.1564-6.1407-.8653-.7466-1.8302-1.4982-2.9687-1.6002-.9241-.0815-2.009.3134-2.4353 1.1364 1.9503.9505 3.6529 1.8397 5.3862 3.2207.8551.6829 1.6822 1.4014 2.5909 2.0129.4263.2854 2.42 1.0192 2.5833 1.3709Z" opacity=".2"/><path fill="#6C63FF" d="m86.9106 48.7737.7301 5.8935s1.8583-2.2524 2.2821-7.1955c0 0-1.9017.0688-3.0122 1.302ZM100.588 37.5498a23.5292 23.5292 0 0 1-6.6702 4.5125c-1.9553-1.9059-4.1914-4.2245-6.7339-5.231a20.7726 20.7726 0 0 0-2.0013-.6497l-2.2514-.6396a9.635 9.635 0 0 1 .7658-4.1838c.4492-1.0651 1.7587-1.7301 2.6828-2.4231 2.0575-1.5288 5.4551-1.8677 8.0103-1.5773 1.1283 1.6333 6.0419 8.704 6.4149 9.7257-.003-.0993-.209.5759-.217.4663Z"/><path fill="#fff" d="M100.588 37.5498a23.5292 23.5292 0 0 1-6.6702 4.5125c-1.9553-1.9059-4.1914-4.2245-6.7339-5.231a20.7726 20.7726 0 0 0-2.0013-.6497l-2.2514-.6396a9.635 9.635 0 0 1 .7658-4.1838c.4492-1.0651 1.7587-1.7301 2.6828-2.4231 2.0575-1.5288 5.4551-1.8677 8.0103-1.5773 1.1283 1.6333 6.0419 8.704 6.4149 9.7257-.003-.0993-.209.5759-.217.4663Z" opacity=".3"/><path fill="#6C63FF" d="M94.3976 27.368a16.6713 16.6713 0 0 0-1.1589-.0841 14.6185 14.6185 0 0 0-1.9809.4128c-2.5016.7058-4.85 2.2066-6.18 4.4361a14.5585 14.5585 0 0 1 6.8003-3.5443c-2.6037 1.7301-5.2942 3.5672-6.8718 6.2502 3.0633.1096 5.4143 2.6423 7.39 4.9839a26.0155 26.0155 0 0 1 1.6899 2.1607 23.5584 23.5584 0 0 0 6.5018-4.4335c0 .1019.186-.4739.219-.4663-.398-1.0574-5.2862-8.0873-6.4094-9.7155Z"/><path fill="#fff" d="M114.426 56.117c-2.011-.5427-4.104-.7771-6.182-.9529.408-4.8633.815-9.7274 1.22-14.5924 1.276-.1299 2.501-.1325 3.729.2395 1.22 4.7979 1.517 10.3627 1.233 15.3058Z"/><path fill="#402C35" d="M112.09 46.9136c-.105 2.4487-.143 4.9788.766 7.2516.909 2.2729 3.03 4.2399 5.486 4.2297l-3.27-14.6153c-.212-.9427-.429-1.9059-.924-2.7365-1.039-1.7505-2.385-1.7989-2.15.3669.17 1.8296.201 3.6694.092 5.5036Z"/><path fill="#6C63FF" d="M113.451 40.5386c.409 5.653.448 11.3267.117 16.9849 7.357 8.016 12.914 17.4461 16.702 27.6381 3.788 10.192 6.242 20.8194 8.679 31.4114 5.94.668 11.153-2.696 15.827-6.416 4.674-3.72 9.064-8.072 14.678-10.125-1.639-7.2341-3.275-14.7175-6.083-21.5767-2.076-5.04-4.531-10.0544-8.391-13.907-3.505-3.4958-7.972-5.84-12.365-8.1281-9.662-5.0323-19.513-10.8493-29.164-15.8816Z"/><mask id="b" width="52" height="46" x="113" y="40" maskUnits="userSpaceOnUse" style="mask-type:luminance"><path fill="url(#a)" d="M163.371 78.4553c-2.075-5.04-4.531-10.0544-8.39-13.907-3.505-3.4958-7.972-5.84-12.366-8.1281-9.649-5.0323-19.499-10.8493-29.151-15.8816.281 3.8627.386 7.7314.316 11.6061.73 1.1746 1.468 2.3492 2.203 3.5366 1.483 2.413 3.781 4.1966 6.035 5.9317 2.662 2.0512 5.36 4.1227 8.424 5.4961 2.371 1.065 4.914 1.6893 7.369 2.548 8.082 2.8682 15.027 8.2503 19.814 15.3542a94.8832 94.8832 0 0 0 6.596-4.3495c-.278-.7389-.561-1.4778-.85-2.2065Z" style="mix-blend-mode:multiply"/></mask><g mask="url(#b)"><path fill="#fff" d="M163.371 78.4553c-2.075-5.04-4.531-10.0544-8.39-13.907-3.505-3.4958-7.972-5.84-12.366-8.1281-9.649-5.0323-19.499-10.8493-29.151-15.8816.281 3.8627.386 7.7314.316 11.6061.73 1.1746 1.468 2.3492 2.203 3.5366 1.483 2.413 3.781 4.1966 6.035 5.9317 2.662 2.0512 5.36 4.1227 8.424 5.4961 2.371 1.065 4.914 1.6893 7.369 2.548 8.082 2.8682 15.027 8.2503 19.814 15.3542a94.8832 94.8832 0 0 0 6.596-4.3495c-.278-.7389-.561-1.4778-.85-2.2065Z" opacity=".1"/></g><path fill="#252525" d="M124.348 70.9336c.669-.535.725-1.4651.381-2.1938-.345-.7287-1.006-1.3046-1.655-1.86-.648-.5555-1.312-1.1415-1.644-1.8677-.331-.7262-.255-1.6613.417-2.1862a.218.218 0 0 1 .152-.0473.2217.2217 0 0 1 .144.0677c-.22.6421-.439 1.3428-.136 1.9594.35.7058 1.254 1.0498 1.991 1.4829 1.667.9785 2.701 2.8971 1.971 4.5125a1.1692 1.1692 0 0 1-.332.4863 1.1784 1.1784 0 0 1-.528.2629c-.424.0484-1.075-.3644-.761-.6167Z"/><path fill="#6C63FF" d="M120.764 72.4038a8.5548 8.5548 0 0 0 4.386 3.2869 3.2428 3.2428 0 0 0 1.513.1886 1.466 1.466 0 0 0 .701-.2903c.204-.1566.363-.3641.461-.6015.207-.6167-.146-1.274-.495-1.8193a67.167 67.167 0 0 0-2.168-3.1977l-4.398 2.4333Z"/><path fill="#fff" d="M120.764 72.4038a8.5548 8.5548 0 0 0 4.386 3.2869 3.2428 3.2428 0 0 0 1.513.1886 1.466 1.466 0 0 0 .701-.2903c.204-.1566.363-.3641.461-.6015.207-.6167-.146-1.274-.495-1.8193a67.167 67.167 0 0 0-2.168-3.1977l-4.398 2.4333Z" opacity=".3"/><path fill="#F9B499" d="M135.1 70.9337c-.511.4179-2.267 1.167-2.867.8994-.472-.2089-.551-.93-1.064-1.1262-.981-.3695-2.17.4434-3.038.7644-.781.2854-2.969-.0968-2.826.8994.181 1.274 2.895 1.4702 3.898 1.4295-1.202.4943-2.323 1.1211-3.52 1.5542-1.483-.5987-2.228-1.4217-3.921-1.2128-.27 1.0931 1.746 1.6027 2.356 2.2754.36.3975.455.8357 1.006.986.437.1172 1.593 0 2.042-.1681.255.9274 1.006.8969 1.802.8994.406 0 .587.5478.981.6548.319.0892.722-.107 1.067-.084 1.899.1325 2.925-1.8906 4.012-2.5327.743-.4408 1.915-1.274 2.704-1.4575-.291-.9835-2.573-3.5876-2.632-3.7812Z"/><path fill="#fff" d="m125.162 69.9705-4.398 2.4333c.2.2909.417.5692.651.8332a66.025 66.025 0 0 1 4.388-2.3518c-.212-.3058-.424-.6141-.641-.9147Z" opacity=".3"/><path fill="#fff" d="M139.731 74.6562c-.82.3695-1.754.8485-2.573 1.2154-.932-1.7632-1.9-3.3659-2.831-5.1291l2.675-1.0523c1.026 1.5797 1.703 3.3914 2.729 4.966Z"/><path fill="#252525" d="M153.415 72.4471a27.2613 27.2613 0 0 1-13.853 3.5825c-1.45-2.1021-3.119-4.0565-4.291-6.3242a74.5324 74.5324 0 0 0 6.974-5.5266c4.549 1.1619 9.052 4.087 11.17 8.2683Z"/><path fill="#6C63FF" d="m166.993 76.6335-4.671-11.0379c-1.256-2.9735-2.586-6.0464-4.998-8.1943-3.064-2.7213-7.342-3.5112-10.977-5.4196-5.506-2.8971-9.383-8.3167-14.979-11.0379-5.907-2.8716-12.689-2.2805-19.232-1.6868 2.527 4.8259.342 10.9768 2.415 16.0141 1.404 3.4067 4.61 5.812 8.059 7.1344 3.448 1.3224 7.173 1.6766 10.841 2.0843 3.668.4077 7.403.8867 10.76 2.3977 6.601 2.9607 10.846 9.3791 14.728 15.4739 2.9-1.3198 5.994-3.3277 8.054-5.7279Z"/><path fill="#000" d="m166.993 76.6335-4.671-11.0379c-1.256-2.9735-2.586-6.0464-4.998-8.1943-3.064-2.7213-7.342-3.5112-10.977-5.4196-5.506-2.8971-9.383-8.3167-14.979-11.0379-5.907-2.8716-12.689-2.2805-19.232-1.6868 2.527 4.8259.342 10.9768 2.415 16.0141 1.404 3.4067 4.61 5.812 8.059 7.1344 3.448 1.3224 7.173 1.6766 10.841 2.0843 3.668.4077 7.403.8867 10.76 2.3977 6.601 2.9607 10.846 9.3791 14.728 15.4739 2.9-1.3198 5.994-3.3277 8.054-5.7279Z" opacity=".4"/><path fill="#000" d="M119.429 56.5655a27.1383 27.1383 0 0 0 5.522-3.4729c-1.389-1.1772-2.127-2.9277-2.808-4.6119l-3.967-9.6824c-2.006.0816-4.026.2548-6.022.4434 2.527 4.8259.342 10.9768 2.415 16.0141 1.404 3.4067 4.61 5.812 8.059 7.1344 2.19.8332 4.493 1.274 6.823 1.6078-3.727-1.9263-7.178-4.2501-10.022-7.4325Z" opacity=".2"/><path fill="#6C63FF" d="M111.587 38.5333c.108 4.3112-.012 9.7868 1.238 13.9146 1.251 4.1277 3.699 6.956 7.551 8.918-1.439-1.6002-2.083-3.929-2.139-6.077 1.501-.2319 3.04-1.0727 4.194-2.0562-2.042-4.7826-3.829-9.8862-4.835-14.9848l-6.009.2854Z"/><path fill="#fff" d="M111.587 38.5333c.108 4.3112-.012 9.7868 1.238 13.9146 1.251 4.1277 3.699 6.956 7.551 8.918-1.439-1.6002-2.083-3.929-2.139-6.077 1.501-.2319 3.04-1.0727 4.194-2.0562-2.042-4.7826-3.829-9.8862-4.835-14.9848l-6.009.2854Z" opacity=".3"/><path fill="#000" d="M127.506 59.6511c4.574.7109 9.164-.7644 13.726-1.5466 4.561-.7823 9.774-.7084 13.159 2.4409-3.319-.8102-7.263-1.6256-10.683-1.3937-1.346.0917-2.676.3465-4.008.5631-4.112.6727-8.286 1.381-12.194-.0637ZM149.865 55.6253a13.5017 13.5017 0 0 0-6.088-.2191c-3.408.665-6.522 2.6423-9.986 2.8308 4.533-.8612 9.409-1.5135 13.945-2.3747.75-.1427 1.419-.5249 2.129-.237ZM158.069 74.7658a29.4923 29.4923 0 0 0-8.539-9.4148 14.621 14.621 0 0 1 5.35 3.7314 14.5848 14.5848 0 0 1 3.189 5.6834Z" opacity=".2"/><mask id="d" width="62" height="77" x="44" y="78" maskUnits="userSpaceOnUse" style="mask-type:luminance"><path fill="url(#c)" d="M72.4983 78.1597 44.521 154.115h61.121L89.7364 90.3212 72.4983 78.1597Z" style="mix-blend-mode:multiply"/></mask><g mask="url(#d)"><path fill="#E5E5E5" d="M72.4983 78.1597 44.521 154.115h61.121L89.7364 90.3212 72.4983 78.1597Z" opacity=".5"/></g><path stroke="#F7A48B" stroke-miterlimit="10" d="M98.4999 94.3879a8.667 8.667 0 0 1-3.0453 1.5671M100.463 94.8262a12.7594 12.7594 0 0 1-3.5304 2.9939M98.9849 98.4417s1.8101-1.0421 2.4581-3.0245"/><defs><linearGradient id="a" x1="138.858" x2="144.246" y1="65.8376" y2="88.6491" gradientUnits="userSpaceOnUse"><stop stop-color="#fff"/><stop offset="1"/></linearGradient><linearGradient id="c" x1="91.4595" x2="82.2787" y1="88.0739" y2="125.234" gradientUnits="userSpaceOnUse"><stop stop-color="#fff"/><stop offset="1"/></linearGradient></defs></svg>