  <svg  xmlns="http://www.w3.org/2000/svg" fill="none" viewBox="0 0 21 22" fill="currentColor">
  <path  d="m20.7773 20.184-4.8717-4.872h-.0525A8.9943 8.9943 0 0 0 8.8096.5019a8.9945 8.9945 0 0 0-.3684 17.9698 8.9937 8.9937 0 0 0 6.3701-2.1178v.0524l4.8718 4.872a.7496.7496 0 0 0 .8203.1641.7496.7496 0 0 0 .2439-.1641.7483.7483 0 0 0 .2524-.5407.75.75 0 0 0-.2224-.5536ZM9.0028 16.9685a7.4947 7.4947 0 0 1-6.9245-4.627A7.4955 7.4955 0 0 1 7.5406 2.1219a7.495 7.495 0 0 1 8.3866 10.2196 7.4954 7.4954 0 0 1-6.9244 4.627Z"/>
  </svg>

